# Created by Metasequoia

v 0.029008 0.029008 0.029008
v 0.011527 0.034580 0.034580
v -0.011527 0.034580 0.034580
v 0.034580 0.011527 0.034580
v 0.015149 0.015149 0.045447
v -0.015149 0.015149 0.045447
v 0.034580 -0.011527 0.034580
v 0.015149 -0.015149 0.045447
v -0.015149 -0.015149 0.045447
v 0.029008 -0.029008 0.029008
v 0.011527 -0.034580 0.034580
v -0.011527 -0.034580 0.034580
v -0.029008 0.029008 0.029008
v -0.034580 0.034580 0.011527
v -0.034580 0.034580 -0.011527
v -0.034580 0.011527 0.034580
v -0.045447 0.015149 0.015149
v -0.045447 0.015149 -0.015149
v -0.034580 -0.011527 0.034580
v -0.045447 -0.015149 0.015149
v -0.045447 -0.015149 -0.015149
v -0.029008 -0.029008 0.029008
v -0.034580 -0.034580 0.011527
v -0.034580 -0.034580 -0.011527
v -0.029008 0.029008 -0.029008
v -0.011527 0.034580 -0.034580
v 0.011527 0.034580 -0.034580
v -0.034580 0.011527 -0.034580
v -0.015149 0.015149 -0.045447
v 0.015149 0.015149 -0.045447
v -0.034580 -0.011527 -0.034580
v -0.015149 -0.015149 -0.045447
v 0.015149 -0.015149 -0.045447
v -0.029008 -0.029008 -0.029008
v -0.011527 -0.034580 -0.034580
v 0.011527 -0.034580 -0.034580
v 0.029008 0.029008 -0.029008
v 0.034580 0.034580 -0.011527
v 0.034580 0.034580 0.011527
v 0.034580 0.011527 -0.034580
v 0.045447 0.015149 -0.015149
v 0.045447 0.015149 0.015149
v 0.034580 -0.011527 -0.034580
v 0.045447 -0.015149 -0.015149
v 0.045447 -0.015149 0.015149
v 0.029008 -0.029008 -0.029008
v 0.034580 -0.034580 -0.011527
v 0.034580 -0.034580 0.011527
v 0.015149 0.045447 -0.015149
v -0.015149 0.045447 -0.015149
v 0.015149 0.045447 0.015149
v -0.015149 0.045447 0.015149
v 0.015149 -0.045447 -0.015149
v -0.015149 -0.045447 -0.015149
v 0.015149 -0.045447 0.015149
v -0.015149 -0.045447 0.015149
# 56 vertices

vn 0.57735 0.57735 0.57735
vn 0.16985 0.73610 0.65522
vn -0.16985 0.65522 0.73610
vn 0.73610 0.16985 0.65522
vn 0.28604 0.28604 0.91453
vn -0.24769 0.24769 0.93664
vn 0.65522 -0.16985 0.73610
vn 0.24769 -0.24769 0.93664
vn -0.28604 -0.28604 0.91453
vn 0.57735 -0.57735 0.57735
vn 0.16985 -0.65522 0.73610
vn -0.16985 -0.73610 0.65522
vn -0.57735 0.57735 0.57735
vn -0.69097 0.69097 0.21239
vn -0.69997 0.69997 -0.14175
vn -0.65522 0.16985 0.73610
vn -0.91453 0.28604 0.28604
vn -0.93664 0.24769 -0.24769
vn -0.73610 -0.16985 0.65522
vn -0.93664 -0.24769 0.24769
vn -0.91453 -0.28604 -0.28604
vn -0.57735 -0.57735 0.57735
vn -0.69997 -0.69997 0.14175
vn -0.69097 -0.69097 -0.21239
vn -0.57735 0.57735 -0.57735
vn -0.16985 0.73610 -0.65522
vn 0.16985 0.65522 -0.73610
vn -0.73610 0.16985 -0.65522
vn -0.28604 0.28604 -0.91453
vn 0.24769 0.24769 -0.93664
vn -0.65522 -0.16985 -0.73610
vn -0.24769 -0.24769 -0.93664
vn 0.28604 -0.28604 -0.91453
vn -0.57735 -0.57735 -0.57735
vn -0.16985 -0.65522 -0.73610
vn 0.16985 -0.73610 -0.65522
vn 0.57735 0.57735 -0.57735
vn 0.69097 0.69097 -0.21239
vn 0.69997 0.69997 0.14175
vn 0.65522 0.16985 -0.73610
vn 0.91453 0.28604 -0.28604
vn 0.93664 0.24769 0.24769
vn 0.73610 -0.16985 -0.65522
vn 0.93664 -0.24769 -0.24769
vn 0.91453 -0.28604 0.28604
vn 0.57735 -0.57735 -0.57735
vn 0.69997 -0.69997 -0.14175
vn 0.69097 -0.69097 0.21239
vn 0.28604 0.91453 -0.28604
vn -0.24769 0.93664 -0.24769
vn 0.24769 0.93664 0.24769
vn -0.28604 0.91453 0.28604
vn 0.24769 -0.93664 -0.24769
vn -0.28604 -0.91453 -0.28604
vn 0.28604 -0.91453 0.28604
vn -0.24769 -0.93664 0.24769
# 56 normal vertices

f 1//1 2//2 5//5
f 1//1 5//5 4//4
f 3//3 6//6 5//5
f 3//3 5//5 2//2
f 13//13 16//16 6//6
f 13//13 6//6 3//3
f 5//5 8//8 7//7
f 5//5 7//7 4//4
f 6//6 9//9 8//8
f 6//6 8//8 5//5
f 16//16 19//19 9//9
f 16//16 9//9 6//6
f 8//8 11//11 10//10
f 8//8 10//10 7//7
f 9//9 12//12 11//11
f 9//9 11//11 8//8
f 9//9 19//19 22//22
f 9//9 22//22 12//12
f 13//13 14//14 17//17
f 13//13 17//17 16//16
f 15//15 18//18 17//17
f 15//15 17//17 14//14
f 25//25 28//28 18//18
f 25//25 18//18 15//15
f 17//17 20//20 19//19
f 17//17 19//19 16//16
f 18//18 21//21 20//20
f 18//18 20//20 17//17
f 28//28 31//31 21//21
f 28//28 21//21 18//18
f 20//20 23//23 22//22
f 20//20 22//22 19//19
f 21//21 24//24 23//23
f 21//21 23//23 20//20
f 21//21 31//31 34//34
f 21//21 34//34 24//24
f 25//25 26//26 29//29
f 25//25 29//29 28//28
f 27//27 30//30 29//29
f 27//27 29//29 26//26
f 37//37 40//40 30//30
f 37//37 30//30 27//27
f 29//29 32//32 31//31
f 29//29 31//31 28//28
f 30//30 33//33 32//32
f 30//30 32//32 29//29
f 40//40 43//43 33//33
f 40//40 33//33 30//30
f 32//32 35//35 34//34
f 32//32 34//34 31//31
f 33//33 36//36 35//35
f 33//33 35//35 32//32
f 33//33 43//43 46//46
f 33//33 46//46 36//36
f 37//37 38//38 41//41
f 37//37 41//41 40//40
f 39//39 42//42 41//41
f 39//39 41//41 38//38
f 1//1 4//4 42//42
f 1//1 42//42 39//39
f 41//41 44//44 43//43
f 41//41 43//43 40//40
f 42//42 45//45 44//44
f 42//42 44//44 41//41
f 4//4 7//7 45//45
f 4//4 45//45 42//42
f 44//44 47//47 46//46
f 44//44 46//46 43//43
f 45//45 48//48 47//47
f 45//45 47//47 44//44
f 45//45 7//7 10//10
f 45//45 10//10 48//48
f 37//37 27//27 49//49
f 37//37 49//49 38//38
f 26//26 50//50 49//49
f 26//26 49//49 27//27
f 25//25 15//15 50//50
f 25//25 50//50 26//26
f 49//49 51//51 39//39
f 49//49 39//39 38//38
f 50//50 52//52 51//51
f 50//50 51//51 49//49
f 15//15 14//14 52//52
f 15//15 52//52 50//50
f 51//51 2//2 1//1
f 51//51 1//1 39//39
f 52//52 3//3 2//2
f 52//52 2//2 51//51
f 52//52 14//14 13//13
f 52//52 13//13 3//3
f 53//53 36//36 46//46
f 53//53 46//46 47//47
f 54//54 35//35 36//36
f 54//54 36//36 53//53
f 54//54 24//24 34//34
f 54//54 34//34 35//35
f 55//55 53//53 47//47
f 55//55 47//47 48//48
f 56//56 54//54 53//53
f 56//56 53//53 55//55
f 23//23 24//24 54//54
f 23//23 54//54 56//56
f 10//10 11//11 55//55
f 10//10 55//55 48//48
f 12//12 56//56 55//55
f 12//12 55//55 11//11
f 22//22 23//23 56//56
f 22//22 56//56 12//12
# 108 elements

