# Blender v2.90.1 OBJ File: ''
# www.blender.org
mtllib wall.mtl
o Cube
v 7.000000 7.000000 0.010000
v 7.000000 7.000000 -0.01000
v 7.000000 -7.000000 0.01000
v 7.000000 -7.000000 -0.01000
v -7.000000 7.000000 0.01000
v -7.000000 7.000000 -0.01000
v -7.000000 -7.000000 0.01000
v -7.000000 -7.000000 -0.01000
vt 1.000000 0.000000
vt 0.996094 0.998047
vt 0.001953 0.998047
vt 0.003906 0.000000
vt 0.000000 1.000000
vt 0.000000 0.500000
vt 0.500000 0.500000
vt 0.500000 1.000000
vt 0.000000 1.000000
vt 0.000000 0.500000
vt 0.500000 0.500000
vt -0.001953 -0.004972
vt 0.999112 -0.004972
vt 1.001065 1.000000
vt -0.001953 1.000000
vt 0.500000 0.500000
vt 0.000000 0.500000
vt 0.000000 0.000000
vt 0.500000 0.000000
vt 0.000000 0.000000
vt 0.500000 0.000000
vn 0.0000 -0.0000 1.0000
vn 0.0000 -1.0000 0.0000
vn -1.0000 0.0000 0.0000
vn 0.0000 0.0000 -1.0000
vn 1.0000 0.0000 0.0000
vn 0.0000 1.0000 0.0000
usemtl wallmat
s off
f 1/1/1 5/2/1 7/3/1 3/4/1
f 4/5/2 3/6/2 7/7/2 8/8/2
f 8/8/3 7/9/3 5/10/3 6/11/3
f 6/12/4 2/13/4 4/14/4 8/15/4
f 2/16/5 1/17/5 3/18/5 4/19/5
f 6/11/6 5/10/6 1/20/6 2/21/6
